# xmcd
#
# Track frame offsets:
#	150
#	13672
#	27502
#	44137
#	61517
#	77662
#	93202
#	108802
#	125662
#	141130
#
# Disc length: 2074 seconds
#
# Revision: 1
# Processed by: cddbd v1.5.1PL2 Copyright (c) Steve Scherf et al.
# Submitted via: audiograbber 1.83.01
#
DISCID=7c08180a
DTITLE=Billy Joe Royal - Country Classics
DYEAR=2003
DGENRE=Country
TTITLE0=Tell It Like It Is
TTITLE1=Love Has No Right
TTITLE2=Burned Like A Rocket
TTITLE3=Out Of Site And On My Mind
TTITLE4=If The Jukebox Took Teardrops
TTITLE5=Searchin' For Some Kind Of Clue
TTITLE6=Old Bridges Burn Slow
TTITLE7=I'm Okay (And Getting Better)
TTITLE8=A Ring Where A Ring Used To Be
TTITLE9=I Miss You Already
EXTD=
EXTT0=
EXTT1=
EXTT2=
EXTT3=
EXTT4=
EXTT5=
EXTT6=
EXTT7=
EXTT8=
EXTT9=
PLAYORDER=
